<svg id="kity_svg_6" xmlns="http://www.w3.org/2000/svg" xmlns:xlink="http://www.w3.org/1999/xlink" version="1.1" width="1575" height="493" style="background: rgb(251, 251, 251); visibility: visible;" viewBox="0 0 1575 493"><defs id="kity_defs_7"><linearGradient id="kity_linearGradient_17" x1="0" y1="0" x2="0" y2="1"><stop id="kity_stop_18" offset="0" stop-color="rgb(255, 255, 255)"></stop><stop id="kity_stop_19" offset="1" stop-color="rgb(204, 204, 204)"></stop></linearGradient><marker id="kity_marker_2" orient="auto" refX="6" refY="0" viewBox="-7 -7 14 14" markerWidth="7" markerHeight="7" markerUnits="userSpaceOnUse"><path id="kity_path_3" fill="rgb(115, 161, 191)" stroke="none" d="M6,0A6,6,0,1,1,-6,0A6,6,0,1,1,6,0"></path></marker><marker id="kity_marker_4" orient="auto" refX="6" refY="0" viewBox="-7 -7 14 14" markerWidth="7" markerHeight="7" markerUnits="userSpaceOnUse"><path id="kity_path_5" fill="rgb(115, 161, 191)" stroke="none" d="M6,0A6,6,0,1,1,-6,0A6,6,0,1,1,6,0"></path></marker></defs><g id="kity_g_8"><g id="minder1" text-rendering="geometricPrecision"><g id="minder_connect_group1"><path id="kity_path_31" fill="none" stroke="rgb(115, 161, 191)" stroke-width="1" d="M627.5,68.5v30h-532.5V118.5"></path><path id="kity_path_39" fill="none" stroke="rgb(115, 161, 191)" stroke-width="1" d="M40.5,148.5V200.5L60.5,200.5"></path><path id="kity_path_47" fill="none" stroke="rgb(115, 161, 191)" stroke-width="1" d="M40.5,148.5V264.5L60.5,264.5"></path><path id="kity_path_55" fill="none" stroke="rgb(115, 161, 191)" stroke-width="1" d="M627.5,68.5v30h-294.5V118.5"></path><path id="kity_path_63" fill="none" stroke="rgb(115, 161, 191)" stroke-width="1" d="M269.5,148.5V200.5L289.5,200.5"></path><path id="kity_path_71" fill="none" stroke="rgb(115, 161, 191)" stroke-width="1" d="M627.5,68.5v30h-89V118.5"></path><path id="kity_path_79" fill="none" stroke="rgb(115, 161, 191)" stroke-width="1" d="M491.5,148.5V200.5L511.5,200.5"></path><path id="kity_path_87" fill="none" stroke="rgb(115, 161, 191)" stroke-width="1" d="M491.5,148.5V264.5L511.5,264.5"></path><path id="kity_path_95" fill="none" stroke="rgb(115, 161, 191)" stroke-width="1" d="M627.5,68.5v30h248.5V118.5"></path><path id="kity_path_103" fill="none" stroke="rgb(115, 161, 191)" stroke-width="1" d="M818.5,148.5V200.5L838.5,200.5"></path><path id="kity_path_111" fill="none" stroke="rgb(115, 161, 191)" stroke-width="1" d="M627.5,68.5v30h489V118.5"></path><path id="kity_path_119" fill="none" stroke="rgb(115, 161, 191)" stroke-width="1" d="M1018.5,148.5V200.5L1038.5,200.5"></path><path id="kity_path_127" fill="none" stroke="rgb(115, 161, 191)" stroke-width="1" d="M1018.5,148.5V264.5L1038.5,264.5"></path><path id="kity_path_155" fill="none" stroke="rgb(115, 161, 191)" stroke-width="1" d="M1018.5,148.5V328.5L1038.5,328.5"></path><path id="kity_path_184" fill="none" stroke="rgb(115, 161, 191)" stroke-width="1" d="M1058.5,345.5V392.5L1078.5,392.5"></path><path id="kity_path_185" fill="none" stroke="rgb(115, 161, 191)" stroke-width="1" d="M1058.5,345.5V456.5L1078.5,456.5"></path></g><g id="minder_node1"><path id="node_outline1" fill="rgb(115, 161, 191)" stroke="rgb(115, 161, 191)" d="M502.5,20.5h250a5,5,0,0,1,5,5v38a5,5,0,0,1,-5,5h-250a5,5,0,0,1,-5,-5v-38a5,5,0,0,1,5,-5z" stroke-width="3"></path><g id="node_text1" fill="white"><text id="kity_text_22" text-rendering="inherit" font-size="24" dy=".8em" y="32.5" x="521.5">Bult-in React Hooks</text></g></g><g id="kity_g_14" display="none"><path id="kity_path_15" fill="rgba(0, 92, 153, 0.5)" stroke="none" d="M1153.5,286.5h152v15h-152z"></path><path id="kity_path_16" fill="none" stroke="rgb(0, 76, 128)" d="M1153.5,286.5L1305.5,286.5" stroke-width="1"></path></g><g id="minder_node2"><g id="node_expander1" style="cursor: pointer;"><path id="kity_path_36" fill="white" stroke="gray" d="M101,111.5A6,6,0,1,1,89,111.5A6,6,0,1,1,101,111.5"></path><path id="kity_path_37" fill="none" stroke="gray" d="M90.5,111.5L99.5,111.5"></path></g><path id="node_outline2" fill="#c4bc96" stroke="rgb(115, 161, 191)" d="M23.5,118.5h143a3,3,0,0,1,3,3v24a3,3,0,0,1,-3,3h-143a3,3,0,0,1,-3,-3v-24a3,3,0,0,1,3,-3z" stroke-width="1"></path><g id="node_text2" fill="#0d0d0d"><text id="kity_text_33" text-rendering="inherit" font-size="18" dy=".8em" y="124.5" font-weight="bold" x="40.5">State Hooks&#xa0;</text></g></g><g id="minder_node3"><g id="node_expander2" style="cursor: pointer;" display="none"><path id="kity_path_44" fill="white" stroke="gray" d="M60.5,200.5A6,6,0,1,1,48.5,200.5A6,6,0,1,1,60.5,200.5"></path><path id="kity_path_45" fill="none" stroke="gray"></path></g><path id="node_outline3" fill="#eeece1" stroke="none" d="M65.5,183.5h105a5,5,0,0,1,5,5v24a5,5,0,0,1,-5,5h-105a5,5,0,0,1,-5,-5v-24a5,5,0,0,1,5,-5z" stroke-width="3"></path><g id="node_text3" fill="#e36c0a"><text id="kity_text_41" text-rendering="inherit" font-size="24" dy=".8em" y="188.5" x="70.5">useState</text></g></g><g id="minder_node4"><g id="node_expander3" style="cursor: pointer;" display="none"><path id="kity_path_52" fill="white" stroke="gray" d="M60.5,264.5A6,6,0,1,1,48.5,264.5A6,6,0,1,1,60.5,264.5"></path><path id="kity_path_53" fill="none" stroke="gray"></path></g><path id="node_outline4" fill="#eeece1" stroke="none" d="M65.5,247.5h139a5,5,0,0,1,5,5v24a5,5,0,0,1,-5,5h-139a5,5,0,0,1,-5,-5v-24a5,5,0,0,1,5,-5z" stroke-width="3"></path><g id="node_text4" fill="#e36c0a"><text id="kity_text_49" text-rendering="inherit" font-size="24" dy=".8em" y="252.5" x="70.5">useReducer</text></g></g><g id="minder_node5"><g id="node_expander4" style="cursor: pointer;"><path id="kity_path_60" fill="white" stroke="gray" d="M339,111.5A6,6,0,1,1,327,111.5A6,6,0,1,1,339,111.5"></path><path id="kity_path_61" fill="none" stroke="gray" d="M328.5,111.5L337.5,111.5"></path></g><path id="node_outline5" fill="#c4bc96" stroke="rgb(115, 161, 191)" d="M252.5,118.5h161a3,3,0,0,1,3,3v24a3,3,0,0,1,-3,3h-161a3,3,0,0,1,-3,-3v-24a3,3,0,0,1,3,-3z" stroke-width="1"></path><g id="node_text5" fill="#0d0d0d"><text id="kity_text_57" text-rendering="inherit" font-size="18" dy=".8em" y="124.5" font-weight="bold" x="269.5">Context Hooks</text></g></g><g id="minder_node6"><g id="node_expander5" style="cursor: pointer;" display="none"><path id="kity_path_68" fill="white" stroke="gray" d="M289.5,200.5A6,6,0,1,1,277.5,200.5A6,6,0,1,1,289.5,200.5"></path><path id="kity_path_69" fill="none" stroke="gray"></path></g><path id="node_outline6" fill="#eeece1" stroke="none" d="M294.5,183.5h132a5,5,0,0,1,5,5v24a5,5,0,0,1,-5,5h-132a5,5,0,0,1,-5,-5v-24a5,5,0,0,1,5,-5z" stroke-width="3"></path><g id="node_text6" fill="#e36c0a"><text id="kity_text_65" text-rendering="inherit" font-size="24" dy=".8em" y="188.5" x="299.5">useContext</text></g></g><g id="minder_node7"><g id="node_expander6" style="cursor: pointer;"><path id="kity_path_76" fill="white" stroke="gray" d="M544.5,111.5A6,6,0,1,1,532.5,111.5A6,6,0,1,1,544.5,111.5"></path><path id="kity_path_77" fill="none" stroke="gray" d="M534,111.5L543,111.5"></path></g><path id="node_outline7" fill="#c4bc96" stroke="rgb(115, 161, 191)" d="M474.5,118.5h128a3,3,0,0,1,3,3v24a3,3,0,0,1,-3,3h-128a3,3,0,0,1,-3,-3v-24a3,3,0,0,1,3,-3z" stroke-width="1"></path><g id="node_text7" fill="#0d0d0d"><text id="kity_text_73" text-rendering="inherit" font-size="18" dy=".8em" y="124.5" font-weight="bold" x="491.5">Ref Hooks&#xa0;</text></g></g><g id="minder_node8"><g id="node_expander7" style="cursor: pointer;" display="none"><path id="kity_path_84" fill="white" stroke="gray" d="M511.5,200.5A6,6,0,1,1,499.5,200.5A6,6,0,1,1,511.5,200.5"></path><path id="kity_path_85" fill="none" stroke="gray"></path></g><path id="node_outline8" fill="#eeece1" stroke="none" d="M516.5,183.5h86a5,5,0,0,1,5,5v24a5,5,0,0,1,-5,5h-86a5,5,0,0,1,-5,-5v-24a5,5,0,0,1,5,-5z" stroke-width="3"></path><g id="node_text8" fill="#e36c0a"><text id="kity_text_81" text-rendering="inherit" font-size="24" dy=".8em" y="188.5" x="521.5">useRef</text></g></g><g id="minder_node9"><g id="node_expander8" style="cursor: pointer;" display="none"><path id="kity_path_92" fill="white" stroke="gray" d="M511.5,264.5A6,6,0,1,1,499.5,264.5A6,6,0,1,1,511.5,264.5"></path><path id="kity_path_93" fill="none" stroke="gray"></path></g><path id="node_outline9" fill="#eeece1" stroke="none" d="M516.5,247.5h237a5,5,0,0,1,5,5v24a5,5,0,0,1,-5,5h-237a5,5,0,0,1,-5,-5v-24a5,5,0,0,1,5,-5z" stroke-width="3"></path><g id="node_text9" fill="#e36c0a"><text id="kity_text_89" text-rendering="inherit" font-size="24" dy=".8em" y="252.5" x="521.5">useImperativeHandle</text></g></g><g id="minder_node10"><g id="node_expander9" style="cursor: pointer;"><path id="kity_path_100" fill="white" stroke="gray" d="M882,111.5A6,6,0,1,1,870,111.5A6,6,0,1,1,882,111.5"></path><path id="kity_path_101" fill="none" stroke="gray" d="M871.5,111.5L880.5,111.5"></path></g><path id="node_outline10" fill="#c4bc96" stroke="rgb(115, 161, 191)" d="M801.5,118.5h149a3,3,0,0,1,3,3v24a3,3,0,0,1,-3,3h-149a3,3,0,0,1,-3,-3v-24a3,3,0,0,1,3,-3z" stroke-width="1"></path><g id="node_text10" fill="#0d0d0d"><text id="kity_text_97" text-rendering="inherit" font-size="18" dy=".8em" y="124.5" font-weight="bold" x="818.5">Effect Hooks&#xa0;</text></g></g><g id="minder_node11"><g id="node_expander10" style="cursor: pointer;" display="none"><path id="kity_path_108" fill="white" stroke="gray" d="M838.5,200.5A6,6,0,1,1,826.5,200.5A6,6,0,1,1,838.5,200.5"></path><path id="kity_path_109" fill="none" stroke="gray"></path></g><path id="node_outline11" fill="#eeece1" stroke="none" d="M843.5,183.5h110a5,5,0,0,1,5,5v24a5,5,0,0,1,-5,5h-110a5,5,0,0,1,-5,-5v-24a5,5,0,0,1,5,-5z" stroke-width="3"></path><g id="node_text11" fill="#e36c0a"><text id="kity_text_105" text-rendering="inherit" font-size="24" dy=".8em" y="188.5" x="848.5">useEffect</text></g></g><g id="minder_node12"><g id="node_expander11" style="cursor: pointer;"><path id="kity_path_116" fill="white" stroke="gray" d="M1122.5,111.5A6,6,0,1,1,1110.5,111.5A6,6,0,1,1,1122.5,111.5"></path><path id="kity_path_117" fill="none" stroke="gray" d="M1112,111.5L1121,111.5"></path></g><path id="node_outline12" fill="#c4bc96" stroke="rgb(115, 161, 191)" d="M1001.5,118.5h230a3,3,0,0,1,3,3v24a3,3,0,0,1,-3,3h-230a3,3,0,0,1,-3,-3v-24a3,3,0,0,1,3,-3z" stroke-width="1"></path><g id="node_text12" fill="#0d0d0d"><text id="kity_text_113" text-rendering="inherit" font-size="18" dy=".8em" y="124.5" font-weight="bold" x="1018.5">Performance Hooks&#xa0;</text></g><g id="kity_g_134" style="cursor: pointer;"><path id="kity_path_135" fill="none" stroke="none" d="M1201,125h12a2,2,0,0,1,2,2v13a2,2,0,0,1,-2,2h-12a2,2,0,0,1,-2,-2v-13a2,2,0,0,1,2,-2z"></path><path id="kity_path_136" fill="black" stroke="none" d="M1210,136H1204V135h6L1210,136L1210,136zM1210,134H1204V133h6V134zM1210,132H1204V131h6V132zM1209.5,138H1203V129h8v7.5M1210,139l2,-2V128H1202v11"></path></g><g id="node_priority1" display="none"><path id="kity_path_139" fill="#006300" stroke="none" d="M994,137c0,3.866,3.134,7,7,7h6c3.866,0,7,-3.134,7,-7V131H994V137z"></path><path id="kity_path_140" fill="#00AF00" stroke="none" d="M1014,134c0,3.866,-3.134,7,-7,7H1001c-3.866,0,-7,-3.134,-7,-7V131c0,-3.866,3.134,-7,7,-7h6c3.866,0,7,3.134,7,7V134z" opacity="0.8"></path><text id="kity_text_141" text-rendering="geometricPrecision" x="1003" y="133.5" text-anchor="middle" font-style="italic" font-size="12" fill="white" dy="4">3</text></g><g id="kity_g_142" display="none"><g id="kity_g_143"><path id="kity_path_144" fill="rgb(255, 244, 179)" stroke="none" d="M1219.5,121.5h88v22h-88z"></path><text id="kity_text_145" text-rendering="geometricPrecision" font-size="12" dy="4" x="1227.5" fill="rgb(77, 65, 0)" y="132.5">useTransition</text></g></g></g><g id="minder_node13" opacity="1"><g id="node_expander12" style="cursor: pointer;" display="none"><path id="kity_path_124" fill="white" stroke="gray" d="M1038.5,200.5A6,6,0,1,1,1026.5,200.5A6,6,0,1,1,1038.5,200.5"></path><path id="kity_path_125" fill="none" stroke="gray"></path></g><path id="node_outline13" fill="#eeece1" stroke="none" d="M1043.5,183.5h115a5,5,0,0,1,5,5v24a5,5,0,0,1,-5,5h-115a5,5,0,0,1,-5,-5v-24a5,5,0,0,1,5,-5z" stroke-width="3"></path><g id="node_text13" fill="#e36c0a"><text id="kity_text_121" text-rendering="inherit" font-size="24" dy=".8em" y="188.5" x="1048.5">useMemo</text></g></g><g id="minder_node14"><g id="node_expander13" style="cursor: pointer;" display="none"><path id="kity_path_132" fill="white" stroke="gray" d="M1038.5,264.5A6,6,0,1,1,1026.5,264.5A6,6,0,1,1,1038.5,264.5"></path><path id="kity_path_133" fill="none" stroke="gray" d="M1028,264.5L1037,264.5"></path></g><path id="node_outline14" fill="#eeece1" stroke="none" d="M1043.5,247.5h142a5,5,0,0,1,5,5v24a5,5,0,0,1,-5,5h-142a5,5,0,0,1,-5,-5v-24a5,5,0,0,1,5,-5z" stroke-width="3"></path><g id="node_text14" fill="#e36c0a"><text id="kity_text_129" text-rendering="inherit" font-size="24" dy=".8em" y="252.5" x="1048.5">useCallback</text></g></g><g id="minder_node16" opacity="1"><g id="node_expander15" style="cursor: pointer;"><path id="kity_path_160" fill="white" stroke="gray" d="M1038.5,328.5A6,6,0,1,1,1026.5,328.5A6,6,0,1,1,1038.5,328.5"></path><path id="kity_path_161" fill="none" stroke="gray" d="M1028,328.5L1037,328.5"></path></g><path id="node_outline16" fill="none" stroke="none" d="M1043.5,311.5h507a5,5,0,0,1,5,5v24a5,5,0,0,1,-5,5h-507a5,5,0,0,1,-5,-5v-24a5,5,0,0,1,5,-5z" stroke-width="3"></path><g id="node_text16" fill="#4e6128"><text id="kity_text_157" text-rendering="inherit" font-size="24" dy=".8em" y="316.5" font-style="italic" x="1048.5">To prioritize rendering, use one of these Hooks</text></g></g><g id="kity_g_12" display="none"><path id="kity_path_13" fill="none" stroke="rgb(66, 94, 112)" d="M880.5,241.5h230a3,3,0,0,1,3,3v24a3,3,0,0,1,-3,3h-230a3,3,0,0,1,-3,-3v-24a3,3,0,0,1,3,-3z" stroke-width="5"></path></g><g id="minder_node17"><g id="node_expander16" style="cursor: pointer;" display="none"><path id="kity_path_168" fill="white" stroke="gray" d="M1078.5,392.5A6,6,0,1,1,1066.5,392.5A6,6,0,1,1,1078.5,392.5"></path><path id="kity_path_169" fill="none" stroke="gray"></path></g><path id="node_outline17" fill="#76923c" stroke="none" d="M1083.5,375.5h153a5,5,0,0,1,5,5v24a5,5,0,0,1,-5,5h-153a5,5,0,0,1,-5,-5v-24a5,5,0,0,1,5,-5z" stroke-width="3"></path><g id="node_text17" fill="#ffffff"><text id="kity_text_165" text-rendering="inherit" font-size="24" dy=".8em" y="380.5" x="1088.5">useTransition</text></g></g><g id="minder_node18"><g id="node_expander17" style="cursor: pointer;" display="none"><path id="kity_path_176" fill="white" stroke="gray" d="M1078.5,456.5A6,6,0,1,1,1066.5,456.5A6,6,0,1,1,1078.5,456.5"></path><path id="kity_path_177" fill="none" stroke="gray"></path></g><path id="node_outline18" fill="#76923c" stroke="none" d="M1083.5,439.5h202a5,5,0,0,1,5,5v24a5,5,0,0,1,-5,5h-202a5,5,0,0,1,-5,-5v-24a5,5,0,0,1,5,-5z" stroke-width="3"></path><g id="node_text18" fill="#ffffff"><text id="kity_text_173" text-rendering="inherit" font-size="24" dy=".8em" y="444.5" x="1088.5">useDeferredValue</text></g></g></g></g></svg>